<svg width="45" height="46" viewBox="0 0 45 46" fill="none" xmlns="http://www.w3.org/2000/svg">
<path d="M22.5 1.49414C34.1016 1.49414 43.4883 10.8809 43.4883 22.4648C43.4883 34.0488 34.1016 43.4531 22.5 43.4531C10.8984 43.4531 1.51172 34.0664 1.51172 22.4824C1.51172 10.8984 10.8984 1.49414 22.5 1.49414Z" fill="#E74D89"/>
<path d="M22.5 45.9473C10.0898 45.9473 0 35.875 0 23.4824C0 11.0723 10.0898 1 22.5 1C34.9102 1 45 11.0723 45 23.4648C45 35.8574 34.9102 45.9473 22.5 45.9473ZM41.4668 26.541C40.8164 26.3301 35.5254 24.7656 29.4961 25.7148C32.0098 32.6055 33.0293 38.2305 33.2227 39.3906C37.5469 36.4902 40.623 31.8848 41.4668 26.541ZM30.0059 41.166C29.7246 39.4785 28.5996 33.6074 25.9102 26.6113C25.875 26.6289 25.8223 26.6465 25.7871 26.6465C14.9414 30.4258 11.0566 37.9316 10.7051 38.6348C13.957 41.166 18.0527 42.6777 22.5 42.6777C25.1543 42.6953 27.7031 42.1504 30.0059 41.166ZM8.22656 36.332C8.66602 35.5938 13.9395 26.875 23.8535 23.6582C24.0996 23.5703 24.3633 23.5 24.6094 23.4297C24.1348 22.3398 23.6074 21.25 23.0449 20.1777C13.4473 23.043 4.13086 22.9199 3.28711 22.9023C3.28711 23.0957 3.26953 23.2891 3.26953 23.4824C3.28711 28.4219 5.15039 32.9219 8.22656 36.332ZM3.69141 19.5625C4.55273 19.5801 12.4629 19.6152 21.4629 17.2246C18.2812 11.5645 14.8359 6.81836 14.3438 6.13281C8.94727 8.66406 4.93945 13.6211 3.69141 19.5625ZM18 4.83203C18.5273 5.53516 22.0254 10.2812 25.1719 16.0645C32.0098 13.498 34.8926 9.63086 35.2441 9.13867C31.8516 6.13281 27.3867 4.30469 22.5 4.30469C20.9531 4.30469 19.4414 4.49805 18 4.83203ZM37.3711 11.3535C36.9668 11.8984 33.75 16.0293 26.6484 18.9297C27.0879 19.8438 27.5273 20.7754 27.9316 21.707C28.0723 22.041 28.2129 22.375 28.3535 22.6914C34.752 21.8828 41.0977 23.1836 41.7305 23.3066C41.6777 18.7891 40.0605 14.623 37.3711 11.3535Z" fill="#B2215A"/>
</svg>
