<svg width="46" height="46" viewBox="0 0 46 46" fill="none" xmlns="http://www.w3.org/2000/svg">
<rect width="46" height="46" rx="23" fill="#FEC9D3"/>
<path d="M29.908 22.1484C31.6011 22.1484 32.8756 21.4258 33.8154 20.1676L32.5594 19.1857C32.2491 19.6046 31.8481 19.9441 31.388 20.1772C30.9279 20.4103 30.4213 20.5307 29.908 20.5289C28.0706 20.5289 26.7391 18.9952 26.7391 17.1132C26.7391 15.2312 28.0488 13.6111 29.9604 13.6111C30.8101 13.6111 31.4107 13.8166 31.9346 14.1492V15.804H33.5152V13.3911L33.2123 13.147C32.3434 12.4465 31.0165 12.0747 29.9074 12.0747C27.1959 12.0747 24.9905 14.3344 24.9905 17.1126C24.9905 19.8881 27.1946 22.1484 29.9074 22.1484H29.908ZM33.1874 32.0854L33.1312 29.7661V24.1064H29.8345V25.7265H31.4663V29.5664C31.4663 31.2206 30.2332 32.3917 28.9893 32.3917C27.7454 32.3917 27.0962 31.508 27.0962 29.8545V24.1057H24.0168V25.7259H25.4313V30.1353C25.4313 32.3793 26.6592 33.9255 28.8494 33.9255C30.108 33.9255 31.0663 33.21 31.6381 32.107H31.6637L31.8892 33.6492H34.4224V32.0873H33.1893V32.0841L33.1874 32.0854ZM24.6263 12.3123H21.8791L19.4896 19.4213H19.4526L17.0759 12.3123H14.1485V13.9331H15.7949L18.6284 22.0359H20.1336V22.0339L23.0885 13.9338H24.625V12.313L24.6263 12.3123ZM11.5776 33.6702H13.2055V32.0029H11.5783V33.6702H11.5776ZM17.8643 25.9851H17.8464L17.7442 24.1064H14.8385V25.5832H16.3846V32.086H14.8385V33.6486H22.0196V32.1168H18.0215V28.1924C18.2023 26.7719 19.2417 25.5589 20.6601 25.5589H20.6856L20.6569 27.0109H22.2375V24.0795H20.9878C19.5567 24.0756 18.4949 24.869 17.8637 25.9857L17.8643 25.9851Z" fill="#0E0E0E"/>
</svg>
