<svg width="46" height="46" viewBox="0 0 46 46" fill="none" xmlns="http://www.w3.org/2000/svg">
<rect width="46" height="46" rx="23" fill="#629FBC"/>
<path fill-rule="evenodd" clip-rule="evenodd" d="M26.056 24.0868C26.1379 24.1193 26.2264 24.1519 26.3188 24.1857C26.3553 24.0777 26.3852 23.9502 26.3995 23.807C26.2746 23.8057 26.1523 23.8031 26.0338 23.7992C26.0417 23.8994 26.0495 23.9983 26.056 24.0868ZM22.0648 14.1186C22.5307 14.237 23.1579 14.3711 23.6264 14.3789C22.7935 13.2428 21.4349 12.9799 20.2 13.3157C21.0172 13.494 21.6197 13.7816 22.0648 14.1186ZM24.156 14.2865C23.9934 14.0236 23.7669 13.7425 23.452 13.4888C23.4806 13.4549 23.5171 13.4107 23.5574 13.3599C24.0064 13.4927 24.3551 13.6657 24.6245 13.8479C24.4957 14.0301 24.3382 14.1928 24.156 14.2865ZM24.8392 13.4875C24.985 13.1986 25.0591 12.95 25.0604 12.9487C25.0552 12.9721 25.0162 13.2246 24.8887 13.5213C25.1411 13.697 25.335 13.8792 25.4808 14.047C25.6994 13.8297 26.0703 13.3834 26.0872 12.8498C26.1106 12.1315 25.5563 12.0755 25.555 12.0755C25.5094 12.0703 25.4769 12.03 25.4821 11.9844C25.4873 11.9389 25.5276 11.9064 25.5732 11.9116C25.5758 11.9116 26.2785 11.9818 26.2512 12.8537C26.2316 13.4523 25.8178 13.9429 25.5849 14.1733C25.646 14.2526 25.6955 14.3268 25.7358 14.3932L26.6845 13.7022C27.2194 12.9331 27.1829 12.1367 27.1829 12.1341C27.1816 12.0885 27.2168 12.0508 27.2623 12.0495C27.3078 12.0482 27.3456 12.0833 27.3469 12.1289C27.3469 12.1315 27.3755 12.76 27.0216 13.4562L30.0875 11.2232L25.9675 14.9163C26.0729 15.213 26.0846 15.4772 26.0573 15.7297L26.108 15.7479C27.0957 15.0985 28.2188 14.6574 28.2227 14.6561C28.2201 14.6574 27.4523 15.3002 26.5726 15.9327C26.7639 16.0147 26.9708 16.1096 27.1842 16.2203C27.3976 16.0979 27.7555 15.9118 28.1472 15.7856C28.4465 15.4264 28.6651 15.2963 28.6664 15.295C28.6977 15.2755 28.738 15.2859 28.7575 15.3158C28.777 15.3471 28.7666 15.3874 28.7367 15.4069C28.7354 15.4069 28.5923 15.4928 28.3801 15.7192C28.4882 15.6932 28.5975 15.6724 28.7055 15.6607C28.9358 15.636 29.1115 15.6633 29.2442 15.7192C29.3509 15.5865 29.4433 15.446 29.511 15.2976C29.8415 14.5741 29.2898 14.889 29.2872 14.8903C29.2559 14.9085 29.2156 14.8968 29.1974 14.8656C29.1792 14.8343 29.1909 14.794 29.2221 14.7758C29.2247 14.7745 30.1291 14.2592 29.6294 15.3523C29.5604 15.5032 29.4681 15.6464 29.3613 15.7817C29.6333 15.9613 29.6646 16.2619 29.6646 16.2632C29.6698 16.3088 29.6372 16.3491 29.5917 16.3543C29.5461 16.3595 29.5058 16.327 29.5006 16.2814C29.5006 16.2801 29.4772 16.0472 29.252 15.9118C28.8942 16.3127 28.4296 16.6237 28.1407 16.7968C28.656 17.1598 29.1453 17.6088 29.4993 18.154C30.0484 17.6921 30.5338 17.5736 30.6861 18.3766L30.6874 18.3792L30.6965 18.4286C30.7355 18.3688 30.7733 18.3115 30.8123 18.2555C30.9164 18.1059 31.0153 18.0057 31.1064 17.9419C31.122 17.8964 31.1299 17.8703 31.1299 17.8703C31.1403 17.8352 31.178 17.8157 31.2118 17.8274C31.2327 17.8339 31.247 17.8495 31.2535 17.8677C31.6543 17.7428 31.8937 18.3037 31.895 18.305C31.9093 18.3375 31.895 18.3766 31.8612 18.3922C31.8287 18.4065 31.7896 18.3922 31.774 18.3583C31.7727 18.357 31.5606 17.8599 31.2066 18.0473C31.139 18.2295 30.9945 18.5731 30.7577 18.9557C30.7915 19.4267 30.7824 20.1164 30.5534 20.7606L30.5872 20.7788C30.5521 20.8439 30.5143 20.9024 30.4753 20.9571C30.3816 21.1705 30.2619 21.3748 30.1083 21.5622C29.403 22.4172 28.5753 22.6267 28.1563 22.6762C28.1954 22.9091 28.1993 23.1759 28.1485 23.4778C28.6222 23.4713 29.1128 23.4609 29.5891 23.4439C30.3829 23.4153 31.1325 23.3672 31.6868 23.293C32.0525 23.2435 32.2581 23.1733 32.357 23.1056C32.2477 23.1147 31.6998 23.0952 32.0642 22.8688C32.236 22.7607 32.4247 22.7568 32.5496 22.8102C32.6407 22.8492 32.7058 22.9169 32.7292 23.0054C32.7526 23.0939 32.7331 23.1915 32.6524 23.2826C32.5392 23.4101 32.2633 23.5481 31.7311 23.6196C31.1676 23.6951 30.4063 23.7433 29.6008 23.7732C29.0972 23.7914 28.5753 23.8018 28.0743 23.8083C27.9819 24.1232 27.844 24.3861 27.6865 24.6034C28.4543 24.7908 29.3548 24.934 30.31 24.934C33.0571 24.934 34.4183 24.4408 34.4183 24.4408C34.4183 24.4408 32.7786 25.2736 30.7447 25.3556C30.6796 25.5729 30.4805 25.9048 29.8689 25.9048C29.2195 25.9048 28.3255 25.4623 27.8687 25.2099C28.2734 25.7889 28.3242 26.5775 28.3242 26.5802C28.3281 26.6257 28.293 26.6647 28.2487 26.6686C28.2032 26.6725 28.1641 26.6374 28.1602 26.5932C28.1602 26.5906 28.0899 25.5196 27.4731 25.0212L27.3378 24.9951C27.1022 25.2125 26.8667 25.3556 26.6975 25.4415L28.6417 27.7722L28.4725 27.9218L26.4854 25.6822C26.4477 25.72 26.4034 25.7616 26.354 25.8059C26.2186 26.0752 25.9935 26.4448 25.633 26.8456C25.905 26.9029 26.3331 27.0629 26.6949 27.508C27.2961 28.2472 26.5323 28.8965 26.531 28.8978L26.4724 28.8406C26.4737 28.8393 27.0762 28.2354 26.5687 27.6108C26.1861 27.1397 25.7254 27.0187 25.5016 26.9875C25.3402 27.1553 25.1541 27.3284 24.9407 27.5002C25.1151 27.7618 25.2869 28.0546 25.3845 28.3187C25.4626 28.5295 25.5172 28.782 25.5094 29.0306C25.4834 29.8907 24.6987 30.1718 23.9348 30.1484C23.7227 30.1419 23.5054 30.1042 23.2893 30.0443C23.396 30.5258 23.4533 31.1088 23.3973 31.7868C23.2021 34.1422 21.189 33.9873 21.1825 33.9886C21.1877 33.9886 23.0616 33.8494 23.2334 31.7738C23.2919 31.0697 23.21 30.4672 23.0746 29.9766C22.7311 29.8595 22.3927 29.6903 22.0765 29.5029C21.9386 29.732 21.7108 29.9037 21.3373 29.8933C21.2528 29.8907 21.1708 29.8764 21.0927 29.853C20.9248 29.9011 20.7231 29.8686 20.4837 29.7059C20.3158 29.5927 20.1766 29.4574 20.0581 29.3155C19.7341 29.7944 19.3971 30.2785 19.0535 30.7548C18.9989 31.8115 18.9026 32.833 18.7386 33.6503C18.4991 34.8488 18.2818 35.6999 17.6286 35.4591C18.0111 35.5359 18.3 34.815 18.5017 33.809C18.6566 33.0387 18.7555 32.0783 18.818 31.0775C18.3183 31.7555 17.8081 32.4088 17.3045 32.9931C16.9271 33.4304 16.4756 33.9014 16.0578 34.0303C16.9519 33.1805 17.9187 31.9833 18.8401 30.7145C18.8661 30.2343 18.8843 29.7489 18.8973 29.2752C18.0033 30.4646 17.056 31.6306 16.201 32.496C12.9255 35.545 15.169 31.5265 15.32 31.697C15.3161 31.7048 13.9106 34.3751 16.0162 32.2474C16.9232 31.33 17.9487 30.0872 18.9078 28.8471L18.9091 28.7508C18.6917 28.7052 18.4627 28.6467 18.235 28.5738C18.1426 28.6805 18.0515 28.782 17.9656 28.8783C17.7392 29.9805 17.0312 30.7887 17.0286 30.7913C16.9987 30.8251 16.9467 30.829 16.9128 30.7991C16.879 30.7691 16.8751 30.7171 16.905 30.6832C16.9076 30.6806 17.4659 30.0417 17.7327 29.1347C17.6429 29.2323 17.5583 29.3234 17.4802 29.4053C16.6174 30.6091 16.2726 30.1926 16.1489 30.0716C16.119 30.0378 16.1229 29.9857 16.158 29.9558C16.1932 29.9259 16.2439 29.9298 16.2739 29.9649C16.2752 29.9649 16.4795 30.2226 17.3618 29.2921C17.4958 29.1503 17.6481 28.985 17.8133 28.8015C17.8355 28.6831 17.8524 28.5608 17.8615 28.4358L17.7821 28.402C17.4841 28.5998 17.069 28.7286 16.4899 28.6818C16.4131 28.6753 16.3389 28.6662 16.2674 28.6558C16.1086 28.8861 15.8848 29.0527 15.6284 29.1503C15.3434 29.2583 15.0194 29.2817 14.7045 29.2153C14.3895 29.149 14.0824 28.9915 13.83 28.7391C13.5424 28.4515 13.3264 28.0389 13.2535 27.495C13.1051 26.3889 13.6582 25.7785 14.1735 25.4558C14.0772 25.2229 14.0265 25.0511 14.0109 24.9964C13.9185 24.9236 13.8261 24.8468 13.735 24.7687L13.6881 24.7817C13.6881 24.7817 13.6816 24.757 13.6725 24.714C13.5918 24.6438 13.5124 24.5709 13.4344 24.4967L13.4331 24.498L13.4227 24.4863C12.975 24.0556 12.6002 23.5715 12.4922 23.0952C12.3321 22.3847 12.7134 21.7834 13.1416 21.3579L13.1533 21.3449C13.2782 21.2213 13.4083 21.112 13.5281 21.0196C13.5814 20.6682 13.6803 20.3572 13.8039 20.0826C13.7545 19.7065 13.7311 19.3187 13.7467 18.9309C13.7532 18.7448 13.7701 18.5588 13.7948 18.3753C13.64 18.4117 13.4799 18.4651 13.3172 18.5392C13.1168 18.629 12.9555 18.7305 12.8253 18.8385C12.5755 19.0481 12.4493 19.2823 12.4063 19.5087C12.3998 19.5465 12.3946 19.5855 12.392 19.6232C12.4688 19.6363 12.5482 19.6545 12.6249 19.6766C13.001 19.7872 13.3602 20.0175 13.4292 20.2921C13.4695 20.4561 13.4552 20.5927 13.4018 20.6929C13.3589 20.7736 13.2925 20.8322 13.2118 20.8647C13.1364 20.8946 13.0492 20.9024 12.9555 20.8855C12.8032 20.8582 12.6314 20.7645 12.4753 20.5953C12.2515 20.5979 11.5552 20.5589 11.5826 19.9889C11.5891 19.8432 11.6646 19.7404 11.783 19.6766C11.8767 19.6258 11.9977 19.6024 12.1304 19.6011C12.1343 19.5543 12.1395 19.5074 12.1486 19.4593C12.202 19.1756 12.3556 18.8867 12.6575 18.6355C12.8045 18.5132 12.9867 18.3987 13.2092 18.2985C13.4266 18.2009 13.64 18.1358 13.843 18.0955C13.9731 17.4396 14.2399 16.8124 14.7032 16.271C14.3843 15.9665 13.9093 15.5826 13.2261 15.174C14.1072 15.2651 14.6849 15.6099 15.0402 15.9262C15.3577 15.6451 15.6961 15.4655 16.0409 15.3627C16.1541 15.2872 16.2674 15.226 16.3793 15.1766C16.1138 14.7914 15.51 14.129 14.2087 13.4445C15.8418 13.8284 16.5524 14.5468 16.8478 14.9931C16.8543 14.9879 16.8686 14.9775 16.8894 14.9632L16.8907 14.9619L16.892 14.9606L16.8946 14.9593L16.9063 14.9502L16.9297 14.9345C17.0039 14.8474 17.0911 14.7498 17.1913 14.6444C16.8959 14.2175 16.3311 13.576 15.2796 12.8524C16.5055 13.1921 17.1887 13.8037 17.5583 14.2917C18.7503 13.2259 20.2546 12.6676 21.798 12.6898C22.5411 12.7015 23.1527 12.7991 23.6563 12.9474C24.0558 12.4165 24.6024 11.5628 24.3812 11.1021C24.2445 10.8158 23.9855 10.6558 23.6836 10.6662C23.4052 10.6753 23.0889 10.7625 22.7831 10.9082C22.5007 11.0436 22.2288 11.2284 22.0049 11.447C21.7642 11.6825 21.7069 11.8868 21.7512 12.0365C21.772 12.1081 21.8149 12.1679 21.8722 12.2135C21.9307 12.2603 22.0036 12.2915 22.0817 12.3059C22.83 12.4334 22.4656 11.5029 22.2756 11.8647C22.247 11.9181 22.1871 11.9493 22.1286 11.9311C21.5091 11.7489 23.2633 11.2765 22.6647 12.2031C22.5176 12.4308 22.273 12.505 22.0544 12.4685C21.9503 12.4503 21.8514 12.4074 21.7707 12.3423C21.6887 12.2759 21.6249 12.1887 21.5937 12.0833C21.5338 11.879 21.5989 11.6149 21.8891 11.3299C22.1259 11.0982 22.4135 10.903 22.7115 10.7599C23.0369 10.605 23.3752 10.5113 23.6771 10.5009C23.9895 10.4905 24.2653 10.5686 24.4501 10.7573C24.5061 10.8145 24.5542 10.8822 24.5907 10.9603C24.8353 11.473 24.2705 12.3983 23.8294 13.0008C24.2406 13.1387 24.5711 13.3079 24.8392 13.4875ZM24.687 13.8922L24.6844 13.8961C24.5451 14.0952 24.4046 14.293 24.2237 14.4023C24.2562 14.4609 24.2862 14.5194 24.3135 14.5754C24.4944 14.6509 24.6818 14.7537 24.8522 14.8578C24.9303 14.9046 25.0045 14.9541 25.0748 15.0022L25.4144 14.6899C25.3168 14.5038 25.1047 14.1902 24.687 13.8922ZM23.0343 14.4531C22.869 14.4661 22.5905 14.5715 22.5489 14.5689C22.4721 14.4804 22.3875 14.3945 22.2938 14.3099C22.5294 14.3633 22.7857 14.4153 23.0343 14.4531ZM23.9738 27.0955H24.0233L24.0077 27.0773L23.9738 27.0955ZM24.1886 27.089C24.2211 27.0864 24.2536 27.0838 24.2875 27.0799C24.2627 27.0408 24.2367 27.0005 24.2094 26.9575C24.182 26.9758 24.1547 26.994 24.1261 27.0109C24.1469 27.0369 24.1677 27.0629 24.1886 27.089ZM24.428 27.0603L24.4566 27.0551C24.3994 26.981 24.3499 26.9211 24.3174 26.8808L24.3148 26.8834C24.3564 26.9445 24.3955 27.0057 24.428 27.0603ZM24.5985 27.0213C24.7598 26.9758 24.9147 26.9068 25.0552 26.8079C25.145 26.7441 25.2257 26.6804 25.2973 26.6192C25.3819 26.5112 25.4587 26.4032 25.5276 26.2952C25.4613 26.3186 25.3936 26.3407 25.3207 26.3602L25.2478 26.3784L25.2179 26.4071C25.0058 26.6036 24.7273 26.7324 24.4358 26.817C24.4761 26.8651 24.5321 26.9354 24.5985 27.0213ZM24.454 27.3831L24.4072 27.3909L24.4501 27.4546L24.4762 27.4351L24.454 27.3831ZM24.2601 27.4065C23.8554 27.4416 23.4598 27.3818 23.1657 27.3141C22.8664 27.3401 22.5723 27.3141 22.3055 27.2633C22.044 27.3258 21.7525 27.3896 21.4701 27.4494C21.8618 27.8281 22.7779 28.5504 24.104 27.6967C24.1873 27.6433 24.2679 27.5874 24.346 27.5314C24.3187 27.4937 24.2901 27.4507 24.2601 27.4065ZM13.6621 23.9385C13.6699 23.9111 13.6777 23.8838 13.6881 23.8578C13.7298 23.7511 13.7844 23.6782 13.8443 23.6261C13.7519 23.3385 13.6712 23.0353 13.6022 22.7126C13.545 22.4458 13.5098 22.1921 13.4942 21.9539C13.3966 22.4432 13.3316 23.1498 13.5671 23.7354C13.5944 23.807 13.627 23.8734 13.6621 23.9385ZM13.9783 24.0139C13.9458 24.1193 13.9419 24.2443 13.9497 24.3575C14.0447 24.4681 14.1462 24.5683 14.2464 24.6555C14.1982 24.5527 14.1514 24.4473 14.1058 24.338L14.0759 24.3445C14.0759 24.3432 14.0642 24.2937 14.0525 24.2078C14.0278 24.1441 14.003 24.0803 13.9783 24.0139ZM18.1218 16.2684C18.1439 16.2996 18.1751 16.3244 18.2194 16.3374C18.412 16.3946 18.5811 16.2801 18.5811 16.2801C18.5811 16.2801 18.5811 16.5131 18.3794 16.5417C18.2987 16.5534 18.205 16.5391 18.1205 16.5183C18.1283 16.5859 18.1426 16.6471 18.1582 16.6992C18.3287 16.6848 18.4835 16.6809 18.6137 16.6796C18.6397 16.5105 18.6644 16.3309 18.6891 16.1513C18.5395 16.0745 18.3794 16.0016 18.2128 15.9353C18.1621 16.055 18.1335 16.1669 18.1218 16.2684ZM16.9909 16.5651C16.9909 16.5651 16.9128 16.2463 16.892 15.649H16.8777C16.4495 16.1604 16.4053 16.8098 16.4261 17.1976C16.4665 17.1741 16.5081 17.152 16.551 17.1286C16.7788 17.0089 17.0195 16.9204 17.2577 16.8553C17.1379 16.6042 17.0599 16.2359 17.164 15.7192C17.1249 15.7791 17.0872 15.8455 17.056 15.9184C16.9467 16.1734 16.9909 16.5651 16.9909 16.5651ZM18.1998 15.3249C18.2909 15.2156 18.4093 15.0829 18.5434 14.9489C18.1946 14.9385 18.0046 15.0139 17.7118 15.1167C17.7704 15.135 17.8277 15.1558 17.8862 15.1779C17.9916 15.2208 18.0957 15.2703 18.1998 15.3249ZM18.7789 15.1766C18.667 15.2885 18.5668 15.4004 18.4848 15.4967C18.572 15.554 18.6579 15.6151 18.7438 15.6789C18.7607 15.5162 18.7724 15.3627 18.7776 15.2286L18.7789 15.1766ZM23.871 14.7849C23.7656 14.7693 23.6524 14.7615 23.5392 14.7589C23.6771 14.8044 23.8073 14.8565 23.9296 14.9124C23.9114 14.8721 23.8932 14.8291 23.871 14.7849ZM23.7227 16.068C23.7487 15.891 23.75 15.6763 23.7409 15.4824C23.5574 15.4577 23.3388 15.4408 23.0798 15.4343C23.2034 15.7401 23.2646 16.029 23.2984 16.2684C23.4247 16.2125 23.573 16.1422 23.7227 16.068ZM24.8952 26.4435C24.8613 26.4487 24.8275 26.4526 24.795 26.4552C24.7637 26.4852 24.7325 26.5164 24.7 26.5463C24.7676 26.5164 24.834 26.4826 24.8952 26.4435ZM25.7358 25.4688C25.8634 25.3855 25.9558 25.3009 26.0182 25.2385C26.0794 25.0329 26.1106 24.8585 26.121 24.731L26.0716 24.7192C26.0091 24.8455 25.9102 25.029 25.7723 25.2463C25.7645 25.3179 25.7528 25.392 25.7358 25.4688ZM21.8462 28.6167C21.8227 28.726 21.7863 28.8757 21.7316 29.0332C21.8084 29.0878 21.8878 29.1425 21.9685 29.1958C22.0401 28.9928 22.0544 28.7677 22.0557 28.6154C21.9893 28.6167 21.919 28.618 21.8462 28.6167ZM21.6549 29.2336C21.5859 29.3923 21.4974 29.5472 21.3881 29.6643C21.6262 29.6578 21.7811 29.5407 21.8813 29.3819C21.8032 29.3338 21.7277 29.2843 21.6549 29.2336ZM19.9358 29.1516C19.8746 29.0631 19.8213 28.9733 19.7744 28.8861C19.6313 28.8705 19.4491 28.8484 19.2448 28.8132L19.1147 28.9889C19.1069 29.4509 19.0938 29.9233 19.0743 30.3944C19.3684 29.9818 19.6573 29.5654 19.9358 29.1516ZM19.6443 28.6076C19.6248 28.5595 19.6079 28.5139 19.5923 28.471C19.5545 28.4749 19.5181 28.4814 19.4842 28.4879L19.4192 28.5777C19.4986 28.5881 19.574 28.5985 19.6443 28.6076ZM17.95 27.8919C17.8693 27.97 17.7925 28.0337 17.7262 28.0832L17.7509 28.0949C17.8277 28.0311 17.894 27.9622 17.95 27.8919ZM17.1575 27.7006C17.2902 27.6759 17.432 27.6147 17.5479 27.4833C17.609 27.413 17.6598 27.3453 17.7014 27.2816C17.3813 27.1358 17.0937 26.9588 16.8438 26.7767C16.7332 26.9042 16.62 27.0356 16.5042 27.1749C16.7397 27.3779 16.9623 27.5509 17.1575 27.7006ZM16.0826 27.6889L16.0253 27.7605C15.8874 27.9335 15.7572 28.078 15.6362 28.199C15.8874 28.3109 16.1789 28.3929 16.5133 28.4202C16.9336 28.4541 17.2551 28.3825 17.4984 28.2589C17.4711 28.2433 17.4451 28.2276 17.4177 28.212L17.4164 28.2198C16.8347 28.0741 16.5849 27.9804 16.0826 27.6889ZM13.0869 23.0054C13.0596 22.5213 13.1351 22.0515 13.2118 21.721C13.0713 22.0008 13.027 22.412 13.0674 22.8401C13.0726 22.8948 13.0791 22.9494 13.0869 23.0054ZM20.8558 14.2162C21.1031 14.3281 21.3178 14.4648 21.5052 14.6157C21.0276 14.6951 20.5969 14.8734 20.2143 15.1102C20.0477 14.9606 19.8473 14.8252 19.6079 14.712C19.5623 14.6899 19.5168 14.6704 19.4712 14.6522C19.7836 14.4244 20.2768 14.1668 20.8558 14.2162ZM19.2422 14.414C19.4543 14.2553 19.7471 14.0783 20.0959 13.9742C19.8161 13.9182 19.509 13.8883 19.1693 13.8922C19.1954 14.0327 19.2214 14.211 19.2422 14.414ZM28.8903 18.1397C28.7836 18.1371 28.6404 18.1618 28.4855 18.2686C28.604 18.4677 28.699 18.6837 28.7627 18.9166C28.8864 18.7696 29.0126 18.6277 29.1401 18.4963C29.0646 18.3727 28.9801 18.2529 28.8903 18.1397ZM28.1459 18.6733C27.9533 19.0494 27.8609 19.5816 27.8206 19.8848C27.8206 19.9434 27.8206 20.0019 27.8167 20.0618C27.8154 20.1034 27.8115 20.1451 27.8076 20.1867C27.9533 19.9733 28.142 19.7065 28.3541 19.4293C28.3307 19.1535 28.2578 18.9023 28.1459 18.6733ZM27.6748 18.9999C27.7451 18.7683 27.8362 18.5379 27.9559 18.3544C27.5109 17.722 26.7704 17.2939 26.1132 17.018C26.1393 17.0869 26.1666 17.1598 26.1926 17.2366C26.7027 17.5554 27.382 18.1215 27.6748 18.9999ZM28.3034 17.9992C28.4166 17.9211 28.5285 17.873 28.6326 17.8456C27.8271 17.0089 26.6845 16.4883 25.9714 16.2229C25.9571 16.2879 25.9427 16.353 25.9297 16.4194C26.6962 16.7005 27.693 17.195 28.3034 17.9992ZM29.5774 21.2759C29.8493 21.2018 30.1604 21.0326 30.3647 20.6552L30.3842 20.6656C30.5547 20.1711 30.5898 19.648 30.5794 19.2289C30.448 19.4124 30.2944 19.5972 30.1174 19.7729L30.0563 19.903C30.0732 20.499 29.8897 20.9441 29.5774 21.2759ZM30.0081 21.38C29.7088 21.5466 29.3991 21.5843 29.1974 21.5882C28.8499 21.8121 28.4218 21.9552 27.9624 22.0424L27.9598 22.0697C27.9741 22.0984 27.9884 22.127 28.0028 22.1569C28.3125 22.2233 28.8551 22.2714 29.377 21.9891C29.5735 21.8485 29.7726 21.6676 29.9626 21.4373C29.9782 21.4178 29.9938 21.3996 30.0081 21.38ZM27.0437 23.1069C27.2545 23.0288 27.4796 22.8557 27.6059 22.4875C27.5668 22.3769 27.5174 22.2793 27.4653 22.196C27.438 22.2168 27.4093 22.2363 27.382 22.2558C27.3287 22.5695 27.1946 22.861 27.0437 23.1069ZM27.6683 21.367C27.6488 21.2616 27.6228 21.1627 27.5941 21.0716C27.5447 21.1965 27.4874 21.3163 27.4263 21.4321C27.4549 21.4542 27.4874 21.4802 27.5239 21.5128C27.572 21.4659 27.6215 21.4178 27.6683 21.367ZM27.7568 20.7619C27.7984 20.866 27.8401 20.9857 27.8752 21.1172C27.965 20.9961 28.047 20.8647 28.116 20.7229C27.991 20.7398 27.8713 20.7528 27.7568 20.7619ZM27.693 22.9078C27.4653 23.2566 27.1426 23.3776 26.8901 23.4127C26.8927 23.4361 26.894 23.4596 26.8966 23.483C27.1348 23.4843 27.3885 23.483 27.6527 23.4817L27.6553 23.47C27.6956 23.2618 27.7048 23.0744 27.693 22.9078ZM28.7731 22.3196C28.5012 22.356 28.2526 22.3352 28.0626 22.3014C28.0847 22.3586 28.103 22.4198 28.1199 22.4823C28.2799 22.4666 28.5103 22.4237 28.7731 22.3196ZM24.6375 27.7331C24.6727 27.7826 24.6818 27.8229 24.674 27.8463C24.6961 27.914 24.6687 27.9179 24.5985 27.862C24.5777 27.8529 24.5542 27.8346 24.5295 27.8099C24.4488 27.8659 24.3655 27.9205 24.2783 27.9752C23.7071 28.3356 23.1644 28.5009 22.6855 28.5556C22.8222 28.7612 23.0668 29.188 23.236 29.8192C23.465 29.8881 23.6954 29.9311 23.9218 29.9363C24.6232 29.9506 25.3545 29.8855 25.3806 29.028C25.3871 28.7976 25.3363 28.5634 25.2635 28.3643C25.1711 28.1131 25.0084 27.8333 24.8405 27.5822C24.7755 27.6329 24.7078 27.6824 24.6375 27.7331ZM22.42 28.5855C22.3823 28.5907 22.3368 28.5959 22.2847 28.5998C22.2847 28.7807 22.2652 29.0644 22.1676 29.3208C22.4331 29.4834 22.7168 29.6292 23.0043 29.7398C22.8117 29.1594 22.5554 28.7677 22.42 28.5855ZM19.1745 28.5035L19.1225 28.4332L19.1212 28.5269L19.1524 28.5334L19.1745 28.5035ZM19.9853 27.7904C20.1622 27.8984 20.3483 27.9817 20.4876 27.9661C20.6398 27.9492 20.7569 27.8633 20.8428 27.7696L20.9847 27.547C20.6893 27.6043 20.4355 27.6498 20.2807 27.6707C20.2065 27.6811 20.1297 27.6889 20.0529 27.6954L19.9853 27.7904ZM17.3943 26.1624C17.5101 26.2874 17.6754 26.4474 17.8641 26.5802C18.0216 26.4487 18.1855 26.2483 18.2961 25.949L17.976 25.5547C17.799 25.733 17.6038 25.9347 17.3943 26.1624ZM18.3703 26.8144C18.559 26.8508 18.749 26.8222 18.9234 26.683C18.9221 26.3967 18.9195 26.1377 18.9169 25.9139L18.8115 25.9763C18.7061 26.355 18.5421 26.6244 18.3703 26.8144ZM19.116 26.5112C19.2461 26.385 19.3385 26.2691 19.4036 26.1663L19.1238 25.7902L19.1069 25.8007L19.116 26.5112ZM19.4869 27.0669C19.6053 27.0916 19.8812 27.1462 20.1596 27.1866C20.2846 27.0148 20.4082 26.8469 20.5266 26.6843C20.36 26.6153 20.1766 26.5255 19.9931 26.4071C19.8955 26.5385 19.7966 26.6686 19.6977 26.7988C19.6274 26.8873 19.5571 26.9771 19.4869 27.0669ZM20.3926 27.2152C20.5201 27.2282 20.6398 27.236 20.7322 27.2308C20.7661 27.2295 20.7999 27.2256 20.835 27.2191C20.9196 27.1957 21.0016 27.1697 21.0836 27.1423C21.1734 27.1033 21.2554 27.0577 21.323 27.0135L21.3543 26.964C21.2632 26.9237 21.202 26.8925 21.1773 26.8795C21.1265 26.8703 20.9495 26.8365 20.714 26.7532C20.6086 26.9042 20.5019 27.0577 20.3926 27.2152ZM17.6897 17.6791C17.6025 17.7246 17.514 17.7767 17.4268 17.8365C17.216 17.9797 17.0508 18.1449 16.9206 18.3167C17.0417 18.3401 17.1731 18.3688 17.3136 18.4065C17.4307 18.4377 17.5401 18.4677 17.6429 18.4976L17.7834 18.3701L17.6897 17.6791ZM20.9027 16.1656C21.1656 16.137 21.595 16.0953 22.0765 16.0719C22.2535 16.0641 22.4018 16.0615 22.5242 16.0641C22.4552 15.8741 22.3615 15.6646 22.234 15.4538C21.5898 15.4954 21.1083 15.6438 20.7556 15.8168C20.8155 15.9353 20.865 16.0524 20.9027 16.1656ZM22.5684 16.1955C22.4422 16.1916 22.2821 16.1929 22.0817 16.2033C21.8097 16.2164 21.5547 16.2359 21.336 16.2541C21.8566 16.284 22.2821 16.3803 22.6244 16.3998C22.61 16.3361 22.5918 16.2684 22.5684 16.1955ZM13.8417 21.639C13.8898 21.7483 13.8521 21.8745 13.7571 21.9396C13.7727 22.166 13.8052 22.4042 13.8599 22.6579C13.9224 22.9481 13.9952 23.224 14.0759 23.4843C14.1332 23.198 14.262 22.8818 14.5275 22.6111C14.4026 22.3326 14.2698 21.9943 14.1514 21.6156C13.8078 21.57 13.8417 21.639 13.8417 21.639ZM13.774 21.1926C13.8443 21.1783 13.9263 21.1692 14.0213 21.1666C14.0082 21.1185 13.9965 21.0703 13.9848 21.0222C13.925 21.0599 13.8547 21.1068 13.7779 21.1614L13.774 21.1926ZM14.6173 21.2148C14.7721 21.2395 14.9452 21.2759 15.1391 21.3228C15.0584 20.892 15.0597 20.5277 15.1248 20.2206C15.2133 19.7989 15.4215 19.4879 15.7078 19.2654C15.687 19.2029 15.6635 19.1261 15.6414 19.0402C15.1781 19.4241 14.6329 20.1099 14.6173 21.2148ZM15.4944 21.4191C15.5633 21.4399 15.6297 21.4594 15.6935 21.4802C15.67 21.1627 15.7195 20.7619 15.955 20.3116C16.0136 20.201 16.08 20.1021 16.1515 20.0149C16.1411 19.8991 16.1294 19.6597 16.1685 19.3656C16.1359 19.3812 16.1034 19.3981 16.0722 19.4163C15.7611 19.5946 15.5334 19.8757 15.4462 20.2882C15.3825 20.5914 15.3916 20.9649 15.4944 21.4191ZM15.7442 22.0125L15.657 21.9826L15.6727 22.0268L15.7442 22.0125ZM15.2731 21.868C15.2237 21.8537 15.1716 21.8407 15.1183 21.8264C14.9348 21.7782 14.7786 21.7405 14.6433 21.7106C14.6524 21.7847 14.6628 21.8615 14.6771 21.9396C14.7331 22.088 14.789 22.2272 14.845 22.3547C14.9895 22.2623 15.1573 22.1804 15.3551 22.1153C15.3252 22.0307 15.2979 21.9487 15.2731 21.868ZM18.0242 28.4996L18.0163 28.5764L18.0697 28.5165L18.0242 28.4996ZM30.9919 18.2412C30.9698 18.2686 30.9464 18.2985 30.9242 18.331C30.8592 18.4247 30.7941 18.5236 30.7303 18.6264C30.7342 18.6603 30.7395 18.6954 30.7434 18.7344C30.8488 18.5496 30.9307 18.3805 30.9919 18.2412ZM30.5625 18.9101C30.4805 19.0559 30.4011 19.2016 30.3295 19.3448C30.418 19.2354 30.4987 19.1235 30.5703 19.0155L30.5625 18.9101ZM30.0393 19.6323C30.1773 19.3435 30.3491 19.0077 30.539 18.6889C30.5195 18.5366 30.5 18.4377 30.4961 18.4182V18.4143C30.3907 17.856 30.0289 17.9471 29.5995 18.3115C29.8285 18.7019 29.9873 19.1417 30.0393 19.6323ZM15.3239 25.2099C15.467 24.9977 15.6922 24.7414 16.0266 24.5267C15.7507 24.3028 15.4189 23.9944 15.1157 23.6027C14.8151 23.945 14.7461 24.3328 14.7617 24.6568C14.8528 24.7752 15.0584 25.0199 15.3239 25.2099ZM16.1216 24.6607C15.8041 24.8611 15.5933 25.1018 15.4592 25.2996C15.7013 25.448 15.8405 25.5157 15.9095 25.5443L15.9798 25.4935L15.9811 25.4948C15.9889 25.4428 16.0006 25.3517 16.0175 25.1929C16.0396 25.0081 16.0839 24.8077 16.1216 24.6607ZM19.2734 15.105C19.2734 15.1519 19.2721 15.2 19.2695 15.2482C19.2617 15.4525 19.2383 15.6984 19.2084 15.9535C19.3866 15.7609 19.5831 15.5748 19.7966 15.4043C19.682 15.3132 19.5493 15.2299 19.3971 15.1584C19.3554 15.1402 19.3151 15.1219 19.2734 15.105ZM19.129 16.5651C19.103 16.7434 19.0769 16.9139 19.0522 17.0687C19.1381 16.9646 19.237 16.8644 19.3346 16.7733L19.129 16.5651ZM18.7529 14.47C18.7334 14.2774 18.7087 14.1082 18.6852 13.9781C18.4093 14.1498 18.1673 14.332 17.9591 14.5103C18.1972 14.4609 18.464 14.4387 18.7529 14.47ZM28.0236 16.7148C28.2917 16.5586 28.7653 16.2541 29.1297 15.8559C29.0256 15.8221 28.8929 15.8064 28.7237 15.826C28.5454 15.8455 28.3632 15.8897 28.1875 15.947C28.0613 16.107 27.9234 16.3074 27.7815 16.5586C27.8622 16.6081 27.9429 16.6601 28.0236 16.7148ZM27.6696 16.4896C27.7698 16.3127 27.8687 16.1591 27.9637 16.0277C27.7295 16.1201 27.5174 16.2268 27.3599 16.314C27.4614 16.3686 27.5655 16.4272 27.6696 16.4896ZM29.5448 20.2362C29.2963 20.3962 29.0152 20.5277 28.7003 20.6136C28.5844 20.9493 28.4127 21.2408 28.211 21.4933C28.902 21.2981 29.4342 20.9194 29.5448 20.2362ZM27.1803 20.7749C27.0814 20.771 26.989 20.7645 26.9005 20.7554C26.9695 20.827 27.0346 20.9064 27.0944 20.9948C27.1257 20.9233 27.1543 20.8504 27.1803 20.7749ZM26.7418 20.6044C26.8836 20.6266 27.0437 20.6409 27.222 20.6461C27.2779 20.4535 27.3144 20.2505 27.3248 20.0384C27.3703 19.0884 26.8953 18.426 26.4047 17.9992C26.4685 18.3076 26.4932 18.5796 26.4893 18.819C26.5283 19.1157 26.5505 19.4319 26.5427 19.7586C26.5375 20.0006 26.527 20.2271 26.5153 20.4353C26.5895 20.486 26.6663 20.542 26.7418 20.6044ZM27.7464 20.6318C27.883 20.6214 28.0275 20.6044 28.181 20.5823C28.2838 20.3325 28.3502 20.054 28.3606 19.7417C28.0873 20.1177 27.8622 20.4548 27.7464 20.6318ZM28.7471 20.4626C29.0516 20.3702 29.3223 20.231 29.5618 20.067C29.5644 20.0175 29.5657 19.9681 29.5644 19.916C29.5526 19.4528 29.429 19.0363 29.2325 18.6642C29.0933 18.8138 28.9514 18.9791 28.8135 19.1496C28.8291 19.2354 28.8395 19.3226 28.846 19.4137C28.8759 19.8002 28.8369 20.149 28.7471 20.4626ZM26.3787 19.5347C26.2824 19.838 26.1379 20.0501 26.013 20.188C26.1132 20.2245 26.2303 20.2739 26.3553 20.3416C26.3644 20.1581 26.3722 19.9629 26.3774 19.756C26.3787 19.6805 26.3787 19.6076 26.3787 19.5347ZM25.6682 19.5178C25.6864 19.553 25.7046 19.5881 25.7228 19.6232C25.7358 19.6506 25.7489 19.6779 25.7619 19.7052C25.8243 19.5738 25.9206 19.2654 25.8113 18.7579C25.6604 18.0577 25.3038 18.629 25.3038 18.629C25.4886 18.8333 25.607 19.2459 25.6682 19.5178ZM26.0013 20.5355C26.0638 20.9922 26.0182 21.3957 25.9675 21.6533C26.0547 21.6585 26.1445 21.6637 26.2342 21.6676C26.2668 21.4269 26.3032 21.1055 26.3318 20.7085C26.216 20.6331 26.1028 20.5771 26.0013 20.5355ZM16.7944 17.9549C16.9193 17.8157 17.0677 17.683 17.2434 17.5632C17.4776 17.4032 17.7131 17.2926 17.9409 17.2171C17.842 17.2301 17.7379 17.247 17.6338 17.2691L17.6181 17.2926C17.6181 17.2926 17.609 17.2874 17.5947 17.2769C17.324 17.3355 17.043 17.4266 16.7827 17.5632C16.6812 17.6166 16.5914 17.6686 16.5107 17.7207C16.6057 17.7962 16.715 17.8834 16.7944 17.9549ZM16.2452 20.4639C16.0409 20.853 15.998 21.1939 16.0175 21.4581C16.093 21.1992 16.2114 20.879 16.3949 20.5264C16.5563 20.2153 16.7749 19.9811 16.9948 19.8067C16.7124 19.9199 16.4274 20.1177 16.2452 20.4639ZM14.6875 22.9442C14.2178 23.5259 14.396 24.2677 14.396 24.2716L14.3661 24.2781C14.4078 24.3757 14.4507 24.4707 14.4936 24.5631C14.4936 24.1922 14.5978 23.7628 14.9543 23.3854C14.8606 23.2474 14.7708 23.1004 14.6875 22.9442ZM15.2237 16.8579C15.1794 16.7941 15.1014 16.69 14.9803 16.556C14.6095 16.9998 14.3817 17.5086 14.2581 18.0447C14.7539 18.0213 15.1625 18.1293 15.4072 18.2191C15.4319 18.1579 15.467 18.0864 15.5165 18.007C15.4072 17.7793 15.2302 17.342 15.2237 16.8579ZM23.3089 13.3808C23.2464 13.3365 23.1826 13.2936 23.1137 13.2506C23.2021 13.2688 23.2867 13.2884 23.3687 13.3092L23.3089 13.3808ZM26.488 20.8205C26.4607 21.1666 26.4294 21.4516 26.3995 21.6728C26.4958 21.6754 26.5908 21.6767 26.6884 21.6754C26.7691 21.5687 26.8459 21.4568 26.9161 21.3384C26.8029 21.1185 26.6494 20.9493 26.488 20.8205ZM26.3449 23.4791L26.3943 23.4257V23.4218C26.3657 23.1941 26.3097 23.0002 26.2447 22.8401L26.2173 22.8492C26.1314 22.9195 26.0482 22.9833 25.9675 23.0431C25.9636 23.1225 25.9662 23.2123 25.9805 23.3151C25.987 23.3633 25.9935 23.4153 26 23.4687C26.1119 23.4739 26.2264 23.4765 26.3449 23.4791ZM27.5577 23.8109C27.3274 23.8122 27.1035 23.8122 26.8927 23.8109C26.8771 24.0126 26.8329 24.1922 26.7808 24.3445C26.9057 24.3848 27.0359 24.4251 27.1725 24.4642C27.3235 24.2924 27.4601 24.0777 27.5577 23.8109ZM26.7873 22.9013C26.8602 22.7803 26.9266 22.6475 26.9786 22.507C26.8797 22.5616 26.786 22.6098 26.6988 22.6514C26.7301 22.7282 26.76 22.8115 26.7873 22.9013ZM26.5479 24.8273C26.5049 24.891 26.4763 24.9262 26.4763 24.9262L26.2863 24.7687L26.216 24.7531L26.3774 25.0498C26.4516 25.0186 26.5752 24.96 26.7183 24.865L26.5479 24.8273ZM16.335 25.9009L16.3676 25.9347C16.5471 26.0791 16.8321 26.0297 16.8321 26.0297C16.8321 26.0297 16.6877 25.8944 16.5836 25.7811C16.4795 25.6679 16.3337 25.3699 16.3337 25.3699C16.3337 25.3699 16.2075 25.7343 16.335 25.9009ZM18.8271 27.6264C18.7021 27.603 18.5733 27.5744 18.4406 27.5405C18.369 27.7383 18.2415 27.9947 18.015 28.2159C18.0931 28.2472 18.1738 28.2771 18.2545 28.3044C18.438 28.0923 18.6293 27.8646 18.8271 27.6264ZM13.7753 27.0603C13.7714 27.0148 13.8052 26.9758 13.8495 26.9719C13.895 26.9679 13.9341 27.0005 13.9393 27.046C13.9393 27.0525 14.1215 29.0813 15.2549 28.2979C14.3921 27.793 14.0408 26.9836 14.0395 26.981C14.0096 26.9146 14.0395 26.8365 14.1058 26.8079C14.1722 26.778 14.2503 26.8079 14.2789 26.8743C14.2802 26.8769 14.6225 27.6681 15.4735 28.1209C15.6037 28.0025 15.7442 27.8503 15.8965 27.659L15.9394 27.6043C15.7234 27.469 15.5035 27.3076 15.2927 27.1124C14.7812 26.6426 14.4507 26.0713 14.2529 25.6393C13.7948 25.9373 13.3172 26.4878 13.4487 27.4703C13.515 27.9674 13.7102 28.3422 13.9705 28.6011C14.1943 28.8249 14.4676 28.9642 14.7461 29.024C15.0246 29.0826 15.3096 29.0631 15.5594 28.9681C15.752 28.8952 15.9238 28.7768 16.0539 28.6167C15.8223 28.5634 15.6128 28.4853 15.4254 28.3916C13.9991 29.5615 13.7753 27.0695 13.7753 27.0603ZM16.1255 27.3701L16.2088 27.2647C15.7195 26.8274 15.1834 26.26 14.7097 25.504L14.6212 25.4441C14.586 25.4584 14.5509 25.4753 14.5132 25.4935C14.6967 25.9009 15.0077 26.4461 15.4957 26.8938C15.7013 27.0838 15.916 27.2412 16.1255 27.3701ZM16.3715 27.0577L16.6408 26.7129L16.188 26.8873C16.2504 26.9471 16.3116 27.0031 16.3715 27.0577ZM17.2212 25.9594C17.4021 25.7226 17.5674 25.5027 17.7157 25.3035C17.5388 25.1955 17.2264 25.0628 16.9961 25.2853C16.741 25.53 17.0482 25.8254 17.2212 25.9594ZM16.3363 27.3766L16.2713 27.4559C16.4144 27.5366 16.5537 27.6056 16.6825 27.6629C16.5719 27.5757 16.4561 27.4807 16.3363 27.3766ZM18.9234 27.767C18.7529 27.9739 18.585 28.1717 18.425 28.3591C18.5902 28.4085 18.7568 28.4502 18.9169 28.4853C18.9195 28.2393 18.9221 27.9986 18.9234 27.767ZM15.7455 17.7168C15.808 17.6504 15.8796 17.5828 15.9628 17.5138C15.9212 17.2158 15.8613 16.4337 16.2374 15.7219C16.1646 15.7401 16.093 15.7622 16.0214 15.7895C15.3291 16.392 15.5581 17.2665 15.7455 17.7168ZM17.5179 16.7915C17.6233 16.7694 17.7275 16.7512 17.8277 16.7369C17.7704 16.5092 17.7496 16.1903 17.9005 15.8247C17.7496 15.7765 17.5934 15.7349 17.436 15.7049C17.3149 16.2346 17.4034 16.5807 17.5179 16.7915ZM15.2888 18.4559C15.0558 18.3727 14.6706 18.2764 14.2048 18.3115C14.1696 18.521 14.1501 18.7331 14.141 18.9452C14.1345 19.1287 14.1358 19.3109 14.1462 19.4931C14.5366 18.9505 15.0051 18.6212 15.2888 18.4559ZM12.4102 19.8939C12.4271 19.9824 12.4545 20.0657 12.4883 20.1425C12.5286 20.2323 12.5794 20.3116 12.6353 20.3793C12.759 20.5277 12.893 20.6083 13.0036 20.6279C13.0479 20.6357 13.0856 20.6331 13.1155 20.6214C13.139 20.6123 13.1585 20.5953 13.1715 20.5706C13.1962 20.5251 13.2001 20.4522 13.1767 20.3559C13.1325 20.1789 12.8527 20.0175 12.5547 19.9291C12.5052 19.916 12.4571 19.9043 12.4102 19.8939ZM12.2475 20.2518C12.1942 20.1334 12.1552 20.0032 12.1382 19.8653C12.0445 19.8653 11.9639 19.8796 11.9092 19.9095V19.9108C11.8715 19.9317 11.848 19.9616 11.8454 20.0045C11.835 20.2362 12.0849 20.3077 12.2853 20.3286C12.2723 20.3025 12.2593 20.2778 12.2475 20.2518ZM20.4485 15.3523C20.4993 15.4121 20.5461 15.4746 20.5891 15.5358C20.9443 15.3575 21.4128 15.2026 22.0205 15.1415C21.9594 15.0621 21.893 14.984 21.8214 14.9085C21.7785 14.9124 21.7342 14.9176 21.69 14.9228C21.2306 14.9775 20.8168 15.1336 20.4485 15.3523ZM20.4251 16.284C20.3991 16.2138 20.3692 16.1435 20.334 16.0706C20.1961 16.1734 20.0972 16.2697 20.0308 16.3439C20.1349 16.3257 20.2703 16.3035 20.4251 16.284ZM22.9172 15.0907C23.1124 15.0842 23.2945 15.0816 23.4637 15.0803C23.2685 15.0152 23.0551 14.9619 22.8209 14.928C22.8547 14.9814 22.8859 15.0361 22.9172 15.0907ZM30.2918 25.3608C30.0875 25.3569 29.8754 25.3465 29.6567 25.3296C29.7361 25.4584 29.8532 25.5911 29.9925 25.5911C30.1343 25.5898 30.2319 25.4727 30.2918 25.3608ZM13.8924 20.6083C13.8742 20.6708 13.8573 20.7346 13.8417 20.7996L13.9211 20.7502C13.912 20.7033 13.9015 20.6565 13.8924 20.6083ZM12.9086 23.4413C12.8579 23.2513 12.824 23.0561 12.8058 22.8636C12.7876 22.6775 12.7863 22.4927 12.7993 22.3183C12.7199 22.5395 12.6926 22.7803 12.7499 23.0366C12.7811 23.1707 12.8358 23.306 12.9086 23.4413ZM25.4951 22.779C25.5654 22.7308 25.6421 22.6775 25.7202 22.6189C25.7332 22.5929 25.7423 22.5629 25.7462 22.5304C25.7775 22.2845 25.5315 22.196 25.5315 22.196C25.5315 22.196 25.5563 22.5473 25.4691 22.7009C25.4404 22.7516 25.4574 22.7764 25.4951 22.779ZM17.4034 23.971C17.4034 23.971 17.5791 24.135 17.7314 24.1219C17.8823 24.1089 17.9461 23.9202 17.9461 23.9202C17.9461 23.9202 17.6806 23.9892 17.4034 23.971ZM23.7552 25.4766C23.7864 25.4831 24.1274 25.6159 24.4423 25.2749C24.7572 24.934 24.631 24.4928 24.631 24.4928C24.631 24.4928 24.5295 24.8468 24.2211 25.1175C23.9127 25.3881 23.7552 25.4766 23.7552 25.4766ZM23.6732 24.8702C23.6732 24.8702 23.8684 24.9392 24.0766 24.7817C24.2849 24.6243 24.1651 24.3588 24.1651 24.3588L23.6732 24.8702ZM24.6505 25.6601C24.6505 25.6601 25.0735 25.6354 25.2361 25.3946C25.4001 25.1552 25.1411 24.7635 25.1411 24.7635C25.1411 24.7635 25.1541 24.934 25.0526 25.2489C24.9524 25.5651 24.6505 25.6601 24.6505 25.6601ZM24.9329 19.9928C24.9329 19.9928 24.9485 20.4053 25.1659 20.4665C25.3832 20.5264 25.3298 20.2362 25.3298 20.2362C25.3298 20.2362 25.2517 20.2648 25.1281 20.2336C25.0045 20.201 24.9329 19.9928 24.9329 19.9928ZM24.7937 19.2745C24.7937 19.2745 24.7117 19.5894 24.8444 19.7286C24.9772 19.8679 25.2504 19.9238 25.2504 19.9238C25.2504 19.9238 25.0305 19.4918 24.7937 19.2745ZM24.9902 18.3583C24.9902 18.3583 25.1164 17.9289 24.9524 17.7337C24.7885 17.5385 24.3799 17.6075 24.3799 17.6075L24.9902 18.3583ZM23.9504 18.2699C23.9504 18.2699 23.9947 17.8912 23.6225 17.4995C23.2503 17.1078 22.8976 17.4747 22.8976 17.4747C22.8976 17.4747 23.3895 17.6517 23.5587 17.8157C23.7305 17.9797 23.9504 18.2699 23.9504 18.2699ZM17.0156 21.2486C17.0443 21.1354 17.2264 20.9428 17.2264 20.9428C17.2264 20.9428 17.013 20.9142 16.9779 21.0183C16.9441 21.1224 17.0156 21.2486 17.0156 21.2486ZM16.2504 23.4153C16.2504 23.4153 16.1685 23.5481 16.348 23.686C16.5276 23.8252 16.9623 23.5728 16.9623 23.5728C16.9623 23.5728 16.823 23.5858 16.6343 23.5533C16.4456 23.522 16.2504 23.4153 16.2504 23.4153ZM17.2915 22.9846C17.2915 22.9846 17.203 23.1993 17.2095 23.47C17.216 23.742 17.4242 23.8422 17.4242 23.8422C17.4242 23.8422 17.2876 23.5103 17.2915 22.9846ZM19.4908 25.2489C19.4908 25.2489 19.5532 25.6848 19.9696 25.8046C20.0503 25.828 20.1284 25.8371 20.2026 25.8371H20.2065H20.2104H20.2143H20.2169H20.2208H20.2247H20.2286H20.2325H20.2364H20.2403H20.2442H20.2481H20.2507H20.252H20.2559H20.2598H20.2637H20.2676H20.2703H20.2716H20.2755H20.2794H20.2833H20.2872H20.2898H20.2911H20.295H20.2989H20.3028H20.3067H20.308H20.3106H20.3145H20.3184H20.3223H20.3262H20.3275H20.3301H20.334H20.3379H20.3418H20.3457H20.3483H20.3522H20.3561H20.36H20.3626H20.3665L20.3705 25.8358H20.3744H20.3783H20.3809L20.3848 25.8345H20.3887H20.3926L20.3952 25.8332H20.3978H20.3991H20.4017H20.4056L20.4082 25.8319L20.4108 25.8306H20.4121H20.4134L20.4199 25.8293L20.4225 25.828L20.4251 25.8267H20.4264H20.429L20.4316 25.8254L20.4342 25.8241C20.6281 25.7798 20.7582 25.69 20.7569 25.69C20.7569 25.69 20.6763 25.69 20.5396 25.6705H20.537H20.5357H20.5344H20.5318H20.5292H20.5266H20.524H20.5214H20.5188H20.5162H20.5136H20.5123H20.511H20.5084H20.5058H20.5032H20.5006H20.498H20.4954H20.4928H20.4902H20.4889H20.4876H20.485H20.4824H20.4798H20.4772H20.4746H20.472H20.4694H20.4668H20.4655H20.4641H20.4615H20.4589H20.4563H20.4537H20.4511H20.4485H20.4459H20.4433H20.442H20.4407H20.4381H20.4355H20.4329H20.4303H20.4277H20.4251H20.4225L20.4199 25.6692H20.4186H20.4173H20.4147L20.4121 25.6679H20.4095H20.4069H20.4043H20.4017L20.3991 25.6666L20.3965 25.6653H20.3952H20.3926L20.39 25.664L20.3874 25.6627H20.3848H20.3822H20.3796L20.377 25.6614H20.3744H20.3718C20.3158 25.6497 20.2546 25.6354 20.187 25.6172C19.8148 25.4896 19.4908 25.2489 19.4908 25.2489ZM22.0856 26.5281C22.0856 26.5281 21.9724 26.683 22.1299 26.778C22.2873 26.873 22.4643 26.8183 22.329 26.7558C22.1936 26.6921 22.0856 26.5281 22.0856 26.5281ZM22.3381 26.2028C22.3381 26.2028 22.722 26.7077 23.1006 26.7207C23.4793 26.7337 23.806 25.7994 23.806 25.7994C23.806 25.7994 23.6615 25.9828 23.2763 26.165C22.8924 26.3472 22.3381 26.2028 22.3381 26.2028Z" fill="#FEFEFE"/>
</svg>
