<svg width="46" height="46" viewBox="0 0 46 46" fill="none" xmlns="http://www.w3.org/2000/svg">
<rect width="46" height="46" rx="23" fill="#0077FF"/>
<path fill-rule="evenodd" clip-rule="evenodd" d="M26.3733 12C32.5333 12 34 13.4667 34 19.6267V26.3733C34 32.5333 32.5333 34 26.3733 34H19.6267C13.4667 34 12 32.5333 12 26.3733V19.6267C12 13.4667 13.4667 12 19.6267 12H26.3733ZM17.9583 18.875H16.3542C15.8958 18.875 15.8042 19.095 15.8042 19.3242C15.8042 19.755 16.345 21.8633 18.3342 24.65C18.8604 25.4908 19.5783 26.195 20.4292 26.7049C21.28 27.2147 22.2396 27.5158 23.2292 27.5833C24.2467 27.5833 24.375 27.3542 24.375 26.96V25.5208C24.375 25.0625 24.4758 24.9708 24.7967 24.9708C25.1175 24.9708 25.4383 25.09 26.3917 26.0067C27.4825 27.0975 27.6567 27.5833 28.2708 27.5833H29.875C30.3333 27.5833 30.5625 27.3542 30.4342 26.905C30.0926 26.2057 29.6338 25.5701 29.0775 25.0258C28.7017 24.5767 28.1608 24.1092 27.9683 23.8708C27.7758 23.6325 27.8033 23.4217 27.9683 23.1558C28.8178 22.014 29.543 20.7848 30.1317 19.4892C30.2325 19.15 30.1317 18.9025 29.6458 18.9025H28.0417C27.893 18.8943 27.7456 18.9334 27.6205 19.014C27.4953 19.0947 27.3989 19.2129 27.345 19.3517C26.8479 20.5339 26.1842 21.639 25.3742 22.6333C24.9983 23.0092 24.8242 23.1283 24.6225 23.1283C24.4208 23.1283 24.375 23.0092 24.375 22.67V19.4617C24.375 19.0583 24.2558 18.875 23.9167 18.875H21.3958C21.2928 18.87 21.1918 18.9055 21.1147 18.9741C21.0376 19.0426 20.9904 19.1387 20.9833 19.2417C20.9833 19.6267 21.57 19.7183 21.625 20.8092V23.165C21.625 23.6875 21.5333 23.7792 21.3317 23.7792C20.7817 23.7792 19.4983 21.7808 18.6733 19.4983C18.5267 19.0583 18.4167 18.875 17.9583 18.875Z" fill="white"/>
</svg>
