<svg width="46" height="46" viewBox="0 0 46 46" fill="none" xmlns="http://www.w3.org/2000/svg">
<g clip-path="url(#clip0_979_323)">
<path d="M23 46C35.7025 46 46 35.7025 46 23C46 10.2975 35.7025 0 23 0C10.2975 0 0 10.2975 0 23C0 35.7025 10.2975 46 23 46Z" fill="#3A67FA"/>
<path d="M44.6724 30.7135L34.2384 20.2796L26.3037 21.4993L20.1594 15.9951L11.7448 17.166L9.97266 30.7405L24.3148 45.9618C33.7368 45.4303 41.6416 39.2282 44.6724 30.7135Z" fill="#2451D1"/>
<path d="M20.979 21.7033C21.4347 20.9938 21.695 20.1477 21.6799 19.2402C21.6398 16.8121 19.619 14.8828 17.1906 14.8828H10.4108C10.0933 14.8828 9.83594 15.1402 9.83594 15.4577V30.3675C9.83594 30.685 10.0933 30.9424 10.4108 30.9424H17.9843C20.7951 30.9424 23.1236 28.6893 23.1348 25.8785C23.1421 24.1559 22.2875 22.6288 20.979 21.7033ZM12.8102 17.8572H17.2487C18.0523 17.8572 18.7064 18.5111 18.7064 19.3149C18.7064 20.1185 18.0523 20.7725 17.2487 20.7725H12.8102V17.8572ZM18.0502 27.968H12.8102V23.7469H18.0502C19.2139 23.7469 20.1608 24.694 20.1608 25.8575C20.1606 27.0212 19.214 27.968 18.0502 27.968Z" fill="white"/>
<path d="M36.1642 24.8206C36.1642 21.349 33.428 18.5244 30.0646 18.5244C26.701 18.5244 23.9648 21.349 23.9648 24.8206C23.9648 28.2924 26.7013 31.1166 30.0646 31.1166C32.1053 31.1166 34.0017 30.0706 35.1375 28.3182C35.2789 28.0995 35.4076 27.8712 35.5217 27.6359C35.6045 27.4651 35.4788 27.2662 35.2889 27.266L32.2906 27.2585C32.2245 27.2585 32.1613 27.2854 32.1139 27.3317C31.5476 27.8822 30.8536 28.1425 30.0648 28.1425C28.5745 28.1425 27.3255 27.028 27.0145 25.5424H35.5675C35.8971 25.5424 36.1643 25.2751 36.1643 24.9453V24.8205H36.1642V24.8206ZM30.0646 21.4988C31.1558 21.4988 32.1177 22.0971 32.6768 23.0005H27.452C28.0113 22.0971 28.9732 21.4988 30.0646 21.4988Z" fill="#D1D1D1"/>
<path d="M32.6016 17.7858H27.1914C26.9391 17.7858 26.7344 17.5811 26.7344 17.3288V15.9717C26.7344 15.7194 26.9391 15.5146 27.1914 15.5146H32.6016C32.8539 15.5146 33.0584 15.7194 33.0584 15.9717V17.3288C33.0585 17.5814 32.8539 17.7858 32.6016 17.7858Z" fill="#D1D1D1"/>
</g>
<defs>
<clipPath id="clip0_979_323">
<rect width="46" height="46" fill="white"/>
</clipPath>
</defs>
</svg>
